  0
SECTION
  2
BLOCKS
  0
ENDSEC
  0
SECTION
  2
ENTITIES
  0
LINE
  8
0
 10
-218.4
 11
-218.4
 20
-226.8
 21
-216.8
  0
LINE
  8
0
 10
-218.4
 11
-213.2
 20
-216.8
 21
-216.8
  0
LINE
  8
0
 10
-213.2
 11
-213.2
 20
-216.8
 21
-208.3
  0
LINE
  8
0
 10
-213.2
 11
-208.7
 20
-208.3
 21
-208.3
  0
LINE
  8
0
 10
-208.7
 11
-208.7
 20
-208.3
 21
-209.55
  0
LINE
  8
0
 10
-208.7
 11
-204.7
 20
-209.55
 21
-209.55
  0
LINE
  8
0
 10
-204.7
 11
-204.7
 20
-209.55
 21
-208.3
  0
LINE
  8
0
 10
-204.7
 11
-203.25
 20
-208.3
 21
-208.3
  0
LINE
  8
0
 10
-203.25
 11
-203.25
 20
-208.3
 21
-205.3
  0
LINE
  8
0
 10
-203.25
 11
-204.7
 20
-205.3
 21
-205.3
  0
LINE
  8
0
 10
-204.7
 11
-204.7
 20
-205.3
 21
-204.05
  0
LINE
  8
0
 10
-204.7
 11
-208.7
 20
-204.05
 21
-204.05
  0
LINE
  8
0
 10
-208.7
 11
-208.7
 20
-204.05
 21
-205.3
  0
LINE
  8
0
 10
-208.7
 11
-213.2
 20
-205.3
 21
-205.3
  0
LINE
  8
0
 10
-213.2
 11
-213.2
 20
-205.3
 21
-196.8
  0
LINE
  8
0
 10
-213.2
 11
-218.4
 20
-196.8
 21
-196.8
  0
LINE
  8
0
 10
-218.4
 11
-218.4
 20
-196.8
 21
-186.8
  0
LINE
  8
0
 10
-218.4
 11
-213.2
 20
-186.8
 21
-186.8
  0
LINE
  8
0
 10
-213.2
 11
-213.2
 20
-186.8
 21
-162.4
  0
LINE
  8
0
 10
-213.2
 11
-218.4
 20
-162.4
 21
-162.4
  0
LINE
  8
0
 10
-218.4
 11
-218.4
 20
-162.4
 21
-152.4
  0
LINE
  8
0
 10
-218.4
 11
-213.2
 20
-152.4
 21
-152.4
  0
LINE
  8
0
 10
-213.2
 11
-213.2
 20
-152.4
 21
-143.9
  0
LINE
  8
0
 10
-213.2
 11
-208.7
 20
-143.9
 21
-143.9
  0
LINE
  8
0
 10
-208.7
 11
-208.7
 20
-143.9
 21
-145.15
  0
LINE
  8
0
 10
-208.7
 11
-204.7
 20
-145.15
 21
-145.15
  0
LINE
  8
0
 10
-204.7
 11
-204.7
 20
-145.15
 21
-143.9
  0
LINE
  8
0
 10
-204.7
 11
-203.25
 20
-143.9
 21
-143.9
  0
LINE
  8
0
 10
-203.25
 11
-203.25
 20
-143.9
 21
-140.9
  0
LINE
  8
0
 10
-203.25
 11
-204.7
 20
-140.9
 21
-140.9
  0
LINE
  8
0
 10
-204.7
 11
-204.7
 20
-140.9
 21
-139.65
  0
LINE
  8
0
 10
-204.7
 11
-208.7
 20
-139.65
 21
-139.65
  0
LINE
  8
0
 10
-208.7
 11
-208.7
 20
-139.65
 21
-140.9
  0
LINE
  8
0
 10
-208.7
 11
-213.2
 20
-140.9
 21
-140.9
  0
LINE
  8
0
 10
-213.2
 11
-213.2
 20
-140.9
 21
-132.4
  0
LINE
  8
0
 10
-213.2
 11
-218.4
 20
-132.4
 21
-132.4
  0
LINE
  8
0
 10
-218.4
 11
-218.4
 20
-132.4
 21
-122.4
  0
LINE
  8
0
 10
-218.4
 11
-213.2
 20
-122.4
 21
-122.4
  0
LINE
  8
0
 10
-213.2
 11
-213.2
 20
-122.4
 21
-116.4
  0
LINE
  8
0
 10
-213.2
 11
-207.2
 20
-116.4
 21
-116.4
  0
LINE
  8
0
 10
-207.2
 11
-207.2
 20
-116.4
 21
-111.2
  0
LINE
  8
0
 10
-207.2
 11
-197.2
 20
-111.2
 21
-111.2
  0
LINE
  8
0
 10
-197.2
 11
-197.2
 20
-111.2
 21
-116.4
  0
LINE
  8
0
 10
-197.2
 11
-188.7
 20
-116.4
 21
-116.4
  0
LINE
  8
0
 10
-188.7
 11
-188.7
 20
-116.4
 21
-120.9
  0
LINE
  8
0
 10
-188.7
 11
-189.95
 20
-120.9
 21
-120.9
  0
LINE
  8
0
 10
-189.95
 11
-189.95
 20
-120.9
 21
-124.9
  0
LINE
  8
0
 10
-189.95
 11
-188.7
 20
-124.9
 21
-124.9
  0
LINE
  8
0
 10
-188.7
 11
-188.7
 20
-124.9
 21
-126.35
  0
LINE
  8
0
 10
-188.7
 11
-185.7
 20
-126.35
 21
-126.35
  0
LINE
  8
0
 10
-185.7
 11
-185.7
 20
-126.35
 21
-124.9
  0
LINE
  8
0
 10
-185.7
 11
-184.45
 20
-124.9
 21
-124.9
  0
LINE
  8
0
 10
-184.45
 11
-184.45
 20
-124.9
 21
-120.9
  0
LINE
  8
0
 10
-184.45
 11
-185.7
 20
-120.9
 21
-120.9
  0
LINE
  8
0
 10
-185.7
 11
-185.7
 20
-120.9
 21
-116.4
  0
LINE
  8
0
 10
-185.7
 11
-177.2
 20
-116.4
 21
-116.4
  0
LINE
  8
0
 10
-177.2
 11
-177.2
 20
-116.4
 21
-111.2
  0
LINE
  8
0
 10
-177.2
 11
-167.2
 20
-111.2
 21
-111.2
  0
LINE
  8
0
 10
-167.2
 11
-167.2
 20
-111.2
 21
-116.4
  0
LINE
  8
0
 10
-167.2
 11
-54.2
 20
-116.4
 21
-116.4
  0
LINE
  8
0
 10
-54.2
 11
-54.2
 20
-116.4
 21
-111.2
  0
LINE
  8
0
 10
-54.2
 11
-44.2
 20
-111.2
 21
-111.2
  0
LINE
  8
0
 10
-44.2
 11
-44.2
 20
-111.2
 21
-116.4
  0
LINE
  8
0
 10
-44.2
 11
-35.7
 20
-116.4
 21
-116.4
  0
LINE
  8
0
 10
-35.7
 11
-35.7
 20
-116.4
 21
-120.9
  0
LINE
  8
0
 10
-35.7
 11
-36.95
 20
-120.9
 21
-120.9
  0
LINE
  8
0
 10
-36.95
 11
-36.95
 20
-120.9
 21
-124.9
  0
LINE
  8
0
 10
-36.95
 11
-35.7
 20
-124.9
 21
-124.9
  0
LINE
  8
0
 10
-35.7
 11
-35.7
 20
-124.9
 21
-126.35
  0
LINE
  8
0
 10
-35.7
 11
-32.7
 20
-126.35
 21
-126.35
  0
LINE
  8
0
 10
-32.7
 11
-32.7
 20
-126.35
 21
-124.9
  0
LINE
  8
0
 10
-32.7
 11
-31.45
 20
-124.9
 21
-124.9
  0
LINE
  8
0
 10
-31.45
 11
-31.45
 20
-124.9
 21
-120.9
  0
LINE
  8
0
 10
-31.45
 11
-32.7
 20
-120.9
 21
-120.9
  0
LINE
  8
0
 10
-32.7
 11
-32.7
 20
-120.9
 21
-116.4
  0
LINE
  8
0
 10
-32.7
 11
-24.2
 20
-116.4
 21
-116.4
  0
LINE
  8
0
 10
-24.2
 11
-24.2
 20
-116.4
 21
-111.2
  0
LINE
  8
0
 10
-24.2
 11
-14.2
 20
-111.2
 21
-111.2
  0
LINE
  8
0
 10
-14.2
 11
-14.2
 20
-111.2
 21
-116.4
  0
LINE
  8
0
 10
-14.2
 11
-8.2
 20
-116.4
 21
-116.4
  0
LINE
  8
0
 10
-8.2
 11
-8.2
 20
-116.4
 21
-122.4
  0
LINE
  8
0
 10
-8.2
 11
-3
 20
-122.4
 21
-122.4
  0
LINE
  8
0
 10
-3
 11
-3
 20
-122.4
 21
-132.4
  0
LINE
  8
0
 10
-3
 11
-8.2
 20
-132.4
 21
-132.4
  0
LINE
  8
0
 10
-8.2
 11
-8.2
 20
-132.4
 21
-140.9
  0
LINE
  8
0
 10
-8.2
 11
-12.7
 20
-140.9
 21
-140.9
  0
LINE
  8
0
 10
-12.7
 11
-12.7
 20
-140.9
 21
-139.65
  0
LINE
  8
0
 10
-12.7
 11
-16.7
 20
-139.65
 21
-139.65
  0
LINE
  8
0
 10
-16.7
 11
-16.7
 20
-139.65
 21
-140.9
  0
LINE
  8
0
 10
-16.7
 11
-18.15
 20
-140.9
 21
-140.9
  0
LINE
  8
0
 10
-18.15
 11
-18.15
 20
-140.9
 21
-143.9
  0
LINE
  8
0
 10
-18.15
 11
-16.7
 20
-143.9
 21
-143.9
  0
LINE
  8
0
 10
-16.7
 11
-16.7
 20
-143.9
 21
-145.15
  0
LINE
  8
0
 10
-16.7
 11
-12.7
 20
-145.15
 21
-145.15
  0
LINE
  8
0
 10
-12.7
 11
-12.7
 20
-145.15
 21
-143.9
  0
LINE
  8
0
 10
-12.7
 11
-8.2
 20
-143.9
 21
-143.9
  0
LINE
  8
0
 10
-8.2
 11
-8.2
 20
-143.9
 21
-152.4
  0
LINE
  8
0
 10
-8.2
 11
-3
 20
-152.4
 21
-152.4
  0
LINE
  8
0
 10
-3
 11
-3
 20
-152.4
 21
-162.4
  0
LINE
  8
0
 10
-3
 11
-8.2
 20
-162.4
 21
-162.4
  0
LINE
  8
0
 10
-8.2
 11
-8.2
 20
-162.4
 21
-186.8
  0
LINE
  8
0
 10
-8.2
 11
-3
 20
-186.8
 21
-186.8
  0
LINE
  8
0
 10
-3
 11
-3
 20
-186.8
 21
-196.8
  0
LINE
  8
0
 10
-3
 11
-8.2
 20
-196.8
 21
-196.8
  0
LINE
  8
0
 10
-8.2
 11
-8.2
 20
-196.8
 21
-205.3
  0
LINE
  8
0
 10
-8.2
 11
-12.7
 20
-205.3
 21
-205.3
  0
LINE
  8
0
 10
-12.7
 11
-12.7
 20
-205.3
 21
-204.05
  0
LINE
  8
0
 10
-12.7
 11
-16.7
 20
-204.05
 21
-204.05
  0
LINE
  8
0
 10
-16.7
 11
-16.7
 20
-204.05
 21
-205.3
  0
LINE
  8
0
 10
-16.7
 11
-18.15
 20
-205.3
 21
-205.3
  0
LINE
  8
0
 10
-18.15
 11
-18.15
 20
-205.3
 21
-208.3
  0
LINE
  8
0
 10
-18.15
 11
-16.7
 20
-208.3
 21
-208.3
  0
LINE
  8
0
 10
-16.7
 11
-16.7
 20
-208.3
 21
-209.55
  0
LINE
  8
0
 10
-16.7
 11
-12.7
 20
-209.55
 21
-209.55
  0
LINE
  8
0
 10
-12.7
 11
-12.7
 20
-209.55
 21
-208.3
  0
LINE
  8
0
 10
-12.7
 11
-8.2
 20
-208.3
 21
-208.3
  0
LINE
  8
0
 10
-8.2
 11
-8.2
 20
-208.3
 21
-216.8
  0
LINE
  8
0
 10
-8.2
 11
-3
 20
-216.8
 21
-216.8
  0
LINE
  8
0
 10
-3
 11
-3
 20
-216.8
 21
-226.8
  0
LINE
  8
0
 10
-3
 11
-8.2
 20
-226.8
 21
-226.8
  0
LINE
  8
0
 10
-8.2
 11
-8.2
 20
-226.8
 21
-232.8
  0
LINE
  8
0
 10
-8.2
 11
-213.2
 20
-232.8
 21
-232.8
  0
LINE
  8
0
 10
-213.2
 11
-213.2
 20
-232.8
 21
-226.8
  0
LINE
  8
0
 10
-213.2
 11
-218.4
 20
-226.8
 21
-226.8
  0
LINE
  8
0
 10
-108.654
 11
-108.654
 20
-1.509
 21
120.254
  0
LINE
  8
0
 10
-108.654
 11
146.468
 20
120.254
 21
120.254
  0
LINE
  8
0
 10
146.468
 11
146.468
 20
120.254
 21
77.502
  0
LINE
  8
0
 10
146.468
 11
61.659
 20
77.502
 21
-7.307
  0
LINE
  8
0
 10
61.659
 11
55.79
 20
-7.307
 21
-1.438
  0
LINE
  8
0
 10
55.79
 11
20.531
 20
-1.438
 21
33.821
  0
LINE
  8
0
 10
20.531
 11
-20.598
 20
33.821
 21
-7.307
  0
LINE
  8
0
 10
-20.598
 11
-61.727
 20
-7.307
 21
33.821
  0
LINE
  8
0
 10
-61.727
 11
-102.855
 20
33.821
 21
-7.307
  0
LINE
  8
0
 10
-102.855
 11
-108.654
 20
-7.307
 21
-1.509
  0
LINE
  8
0
 10
-104.411
 11
-97.34
 20
2.734
 21
9.805
  0
LINE
  8
0
 10
-97.34
 11
-93.663
 20
9.805
 21
6.128
  0
LINE
  8
0
 10
-93.663
 11
-100.734
 20
6.128
 21
-0.943
  0
LINE
  8
0
 10
-100.734
 11
-104.411
 20
-0.943
 21
2.734
  0
LINE
  8
0
 10
-98.454
 11
-98.339
 20
115.054
 21
115.628
  0
LINE
  8
0
 10
-98.339
 11
-98.014
 20
115.628
 21
116.114
  0
LINE
  8
0
 10
-98.014
 11
-97.528
 20
116.114
 21
116.439
  0
LINE
  8
0
 10
-97.528
 11
-96.954
 20
116.439
 21
116.554
  0
LINE
  8
0
 10
-96.954
 11
-96.38
 20
116.554
 21
116.439
  0
LINE
  8
0
 10
-96.38
 11
-95.893
 20
116.439
 21
116.114
  0
LINE
  8
0
 10
-95.893
 11
-95.568
 20
116.114
 21
115.628
  0
LINE
  8
0
 10
-95.568
 11
-95.454
 20
115.628
 21
115.054
  0
LINE
  8
0
 10
-95.454
 11
-95.568
 20
115.054
 21
114.48
  0
LINE
  8
0
 10
-95.568
 11
-95.893
 20
114.48
 21
113.993
  0
LINE
  8
0
 10
-95.893
 11
-96.38
 20
113.993
 21
113.668
  0
LINE
  8
0
 10
-96.38
 11
-96.954
 20
113.668
 21
113.554
  0
LINE
  8
0
 10
-96.954
 11
-97.528
 20
113.554
 21
113.668
  0
LINE
  8
0
 10
-97.528
 11
-98.014
 20
113.668
 21
113.993
  0
LINE
  8
0
 10
-98.014
 11
-98.339
 20
113.993
 21
114.48
  0
LINE
  8
0
 10
-98.339
 11
-98.454
 20
114.48
 21
115.054
  0
LINE
  8
0
 10
-89.999
 11
-89.999
 20
14.617
 21
15.458
  0
LINE
  8
0
 10
-89.999
 11
-89.578
 20
15.458
 21
16.185
  0
LINE
  8
0
 10
-89.578
 11
-88.851
 20
16.185
 21
16.606
  0
LINE
  8
0
 10
-88.851
 11
-88.01
 20
16.606
 21
16.606
  0
LINE
  8
0
 10
-88.01
 11
-87.282
 20
16.606
 21
16.185
  0
LINE
  8
0
 10
-87.282
 11
-86.862
 20
16.185
 21
15.458
  0
LINE
  8
0
 10
-86.862
 11
-86.862
 20
15.458
 21
14.617
  0
LINE
  8
0
 10
-86.862
 11
-87.282
 20
14.617
 21
13.889
  0
LINE
  8
0
 10
-87.282
 11
-88.01
 20
13.889
 21
13.469
  0
LINE
  8
0
 10
-88.01
 11
-88.851
 20
13.469
 21
13.469
  0
LINE
  8
0
 10
-88.851
 11
-89.578
 20
13.469
 21
13.889
  0
LINE
  8
0
 10
-89.578
 11
-89.999
 20
13.889
 21
14.617
  0
LINE
  8
0
 10
-83.198
 11
-76.127
 20
23.947
 21
31.018
  0
LINE
  8
0
 10
-76.127
 11
-72.45
 20
31.018
 21
27.341
  0
LINE
  8
0
 10
-72.45
 11
-79.521
 20
27.341
 21
20.27
  0
LINE
  8
0
 10
-79.521
 11
-83.198
 20
20.27
 21
23.947
  0
LINE
  8
0
 10
-74.954
 11
-74.839
 20
115.054
 21
115.628
  0
LINE
  8
0
 10
-74.839
 11
-74.514
 20
115.628
 21
116.114
  0
LINE
  8
0
 10
-74.514
 11
-74.028
 20
116.114
 21
116.439
  0
LINE
  8
0
 10
-74.028
 11
-73.454
 20
116.439
 21
116.554
  0
LINE
  8
0
 10
-73.454
 11
-72.88
 20
116.554
 21
116.439
  0
LINE
  8
0
 10
-72.88
 11
-72.393
 20
116.439
 21
116.114
  0
LINE
  8
0
 10
-72.393
 11
-72.068
 20
116.114
 21
115.628
  0
LINE
  8
0
 10
-72.068
 11
-71.954
 20
115.628
 21
115.054
  0
LINE
  8
0
 10
-71.954
 11
-72.068
 20
115.054
 21
114.48
  0
LINE
  8
0
 10
-72.068
 11
-72.393
 20
114.48
 21
113.993
  0
LINE
  8
0
 10
-72.393
 11
-72.88
 20
113.993
 21
113.668
  0
LINE
  8
0
 10
-72.88
 11
-73.454
 20
113.668
 21
113.554
  0
LINE
  8
0
 10
-73.454
 11
-74.028
 20
113.554
 21
113.668
  0
LINE
  8
0
 10
-74.028
 11
-74.514
 20
113.668
 21
113.993
  0
LINE
  8
0
 10
-74.514
 11
-74.839
 20
113.993
 21
114.48
  0
LINE
  8
0
 10
-74.839
 11
-74.954
 20
114.48
 21
115.054
  0
LINE
  8
0
 10
-62.911
 11
-59.234
 20
22.266
 21
25.943
  0
LINE
  8
0
 10
-59.234
 11
-52.163
 20
25.943
 21
18.872
  0
LINE
  8
0
 10
-52.163
 11
-55.84
 20
18.872
 21
15.195
  0
LINE
  8
0
 10
-55.84
 11
-62.911
 20
15.195
 21
22.266
  0
LINE
  8
0
 10
-58.873
 11
-51.802
 20
48.271
 21
55.342
  0
LINE
  8
0
 10
-51.802
 11
-48.125
 20
55.342
 21
51.665
  0
LINE
  8
0
 10
-48.125
 11
-55.196
 20
51.665
 21
44.594
  0
LINE
  8
0
 10
-55.196
 11
-58.873
 20
44.594
 21
48.271
  0
LINE
  8
0
 10
-58.166
 11
-54.489
 20
112.618
 21
116.295
  0
LINE
  8
0
 10
-54.489
 11
-47.418
 20
116.295
 21
109.224
  0
LINE
  8
0
 10
-47.418
 11
-51.095
 20
109.224
 21
105.547
  0
LINE
  8
0
 10
-51.095
 11
-58.166
 20
105.547
 21
112.618
  0
LINE
  8
0
 10
-56.954
 11
-56.839
 20
-90.054
 21
-89.48
  0
LINE
  8
0
 10
-56.839
 11
-56.514
 20
-89.48
 21
-88.993
  0
LINE
  8
0
 10
-56.514
 11
-56.028
 20
-88.993
 21
-88.668
  0
LINE
  8
0
 10
-56.028
 11
-55.454
 20
-88.668
 21
-88.554
  0
LINE
  8
0
 10
-55.454
 11
-54.88
 20
-88.554
 21
-88.668
  0
LINE
  8
0
 10
-54.88
 11
-54.393
 20
-88.668
 21
-88.993
  0
LINE
  8
0
 10
-54.393
 11
-54.068
 20
-88.993
 21
-89.48
  0
LINE
  8
0
 10
-54.068
 11
-53.954
 20
-89.48
 21
-90.054
  0
LINE
  8
0
 10
-53.954
 11
-54.068
 20
-90.054
 21
-90.628
  0
LINE
  8
0
 10
-54.068
 11
-54.393
 20
-90.628
 21
-91.114
  0
LINE
  8
0
 10
-54.393
 11
-54.88
 20
-91.114
 21
-91.439
  0
LINE
  8
0
 10
-54.88
 11
-55.454
 20
-91.439
 21
-91.554
  0
LINE
  8
0
 10
-55.454
 11
-56.028
 20
-91.554
 21
-91.439
  0
LINE
  8
0
 10
-56.028
 11
-56.514
 20
-91.439
 21
-91.114
  0
LINE
  8
0
 10
-56.514
 11
-56.839
 20
-91.114
 21
-90.628
  0
LINE
  8
0
 10
-56.839
 11
-56.954
 20
-90.628
 21
-90.054
  0
LINE
  8
0
 10
-67.154
 11
-67.154
 20
-95.254
 21
26.509
  0
LINE
  8
0
 10
-67.154
 11
-61.355
 20
26.509
 21
32.307
  0
LINE
  8
0
 10
-61.355
 11
-20.227
 20
32.307
 21
-8.821
  0
LINE
  8
0
 10
-20.227
 11
20.902
 20
-8.821
 21
32.307
  0
LINE
  8
0
 10
20.902
 11
62.031
 20
32.307
 21
-8.821
  0
LINE
  8
0
 10
62.031
 11
97.29
 20
-8.821
 21
26.438
  0
LINE
  8
0
 10
97.29
 11
103.159
 20
26.438
 21
32.307
  0
LINE
  8
0
 10
103.159
 11
187.968
 20
32.307
 21
-52.502
  0
LINE
  8
0
 10
187.968
 11
187.968
 20
-52.502
 21
-95.254
  0
LINE
  8
0
 10
187.968
 11
-67.154
 20
-95.254
 21
-95.254
  0
LINE
  8
0
 10
-48.499
 11
-48.499
 20
9.542
 21
10.383
  0
LINE
  8
0
 10
-48.499
 11
-48.078
 20
10.383
 21
11.111
  0
LINE
  8
0
 10
-48.078
 11
-47.351
 20
11.111
 21
11.531
  0
LINE
  8
0
 10
-47.351
 11
-46.51
 20
11.531
 21
11.531
  0
LINE
  8
0
 10
-46.51
 11
-45.782
 20
11.531
 21
11.111
  0
LINE
  8
0
 10
-45.782
 11
-45.362
 20
11.111
 21
10.383
  0
LINE
  8
0
 10
-45.362
 11
-45.362
 20
10.383
 21
9.542
  0
LINE
  8
0
 10
-45.362
 11
-45.782
 20
9.542
 21
8.815
  0
LINE
  8
0
 10
-45.782
 11
-46.51
 20
8.815
 21
8.394
  0
LINE
  8
0
 10
-46.51
 11
-47.351
 20
8.394
 21
8.394
  0
LINE
  8
0
 10
-47.351
 11
-48.078
 20
8.394
 21
8.815
  0
LINE
  8
0
 10
-48.078
 11
-48.499
 20
8.815
 21
9.542
  0
LINE
  8
0
 10
-44.461
 11
-44.461
 20
60.155
 21
60.995
  0
LINE
  8
0
 10
-44.461
 11
-44.041
 20
60.995
 21
61.723
  0
LINE
  8
0
 10
-44.041
 11
-43.313
 20
61.723
 21
62.143
  0
LINE
  8
0
 10
-43.313
 11
-42.472
 20
62.143
 21
62.143
  0
LINE
  8
0
 10
-42.472
 11
-41.745
 20
62.143
 21
61.723
  0
LINE
  8
0
 10
-41.745
 11
-41.324
 20
61.723
 21
60.995
  0
LINE
  8
0
 10
-41.324
 11
-41.324
 20
60.995
 21
60.155
  0
LINE
  8
0
 10
-41.324
 11
-41.745
 20
60.155
 21
59.427
  0
LINE
  8
0
 10
-41.745
 11
-42.472
 20
59.427
 21
59.007
  0
LINE
  8
0
 10
-42.472
 11
-43.313
 20
59.007
 21
59.007
  0
LINE
  8
0
 10
-43.313
 11
-44.041
 20
59.007
 21
59.427
  0
LINE
  8
0
 10
-44.041
 11
-44.461
 20
59.427
 21
60.155
  0
LINE
  8
0
 10
-43.754
 11
-43.754
 20
99.894
 21
100.735
  0
LINE
  8
0
 10
-43.754
 11
-43.334
 20
100.735
 21
101.462
  0
LINE
  8
0
 10
-43.334
 11
-42.606
 20
101.462
 21
101.883
  0
LINE
  8
0
 10
-42.606
 11
-41.765
 20
101.883
 21
101.883
  0
LINE
  8
0
 10
-41.765
 11
-41.038
 20
101.883
 21
101.462
  0
LINE
  8
0
 10
-41.038
 11
-40.617
 20
101.462
 21
100.735
  0
LINE
  8
0
 10
-40.617
 11
-40.617
 20
100.735
 21
99.894
  0
LINE
  8
0
 10
-40.617
 11
-41.038
 20
99.894
 21
99.166
  0
LINE
  8
0
 10
-41.038
 11
-41.765
 20
99.166
 21
98.746
  0
LINE
  8
0
 10
-41.765
 11
-42.606
 20
98.746
 21
98.746
  0
LINE
  8
0
 10
-42.606
 11
-43.334
 20
98.746
 21
99.166
  0
LINE
  8
0
 10
-43.334
 11
-43.754
 20
99.166
 21
99.894
  0
LINE
  8
0
 10
-41.698
 11
-38.021
 20
1.053
 21
4.73
  0
LINE
  8
0
 10
-38.021
 11
-30.95
 20
4.73
 21
-2.341
  0
LINE
  8
0
 10
-30.95
 11
-34.627
 20
-2.341
 21
-6.018
  0
LINE
  8
0
 10
-34.627
 11
-41.698
 20
-6.018
 21
1.053
  0
LINE
  8
0
 10
-37.66
 11
-30.589
 20
69.485
 21
76.556
  0
LINE
  8
0
 10
-30.589
 11
-26.912
 20
76.556
 21
72.879
  0
LINE
  8
0
 10
-26.912
 11
-33.983
 20
72.879
 21
65.808
  0
LINE
  8
0
 10
-33.983
 11
-37.66
 20
65.808
 21
69.485
  0
LINE
  8
0
 10
-36.953
 11
-33.276
 20
91.405
 21
95.082
  0
LINE
  8
0
 10
-33.276
 11
-26.205
 20
95.082
 21
88.011
  0
LINE
  8
0
 10
-26.205
 11
-29.882
 20
88.011
 21
84.334
  0
LINE
  8
0
 10
-29.882
 11
-36.953
 20
84.334
 21
91.405
  0
LINE
  8
0
 10
-33.454
 11
-33.339
 20
-90.054
 21
-89.48
  0
LINE
  8
0
 10
-33.339
 11
-33.014
 20
-89.48
 21
-88.993
  0
LINE
  8
0
 10
-33.014
 11
-32.528
 20
-88.993
 21
-88.668
  0
LINE
  8
0
 10
-32.528
 11
-31.954
 20
-88.668
 21
-88.554
  0
LINE
  8
0
 10
-31.954
 11
-31.38
 20
-88.554
 21
-88.668
  0
LINE
  8
0
 10
-31.38
 11
-30.893
 20
-88.668
 21
-88.993
  0
LINE
  8
0
 10
-30.893
 11
-30.568
 20
-88.993
 21
-89.48
  0
LINE
  8
0
 10
-30.568
 11
-30.454
 20
-89.48
 21
-90.054
  0
LINE
  8
0
 10
-30.454
 11
-30.568
 20
-90.054
 21
-90.628
  0
LINE
  8
0
 10
-30.568
 11
-30.893
 20
-90.628
 21
-91.114
  0
LINE
  8
0
 10
-30.893
 11
-31.38
 20
-91.114
 21
-91.439
  0
LINE
  8
0
 10
-31.38
 11
-31.954
 20
-91.439
 21
-91.554
  0
LINE
  8
0
 10
-31.954
 11
-32.528
 20
-91.554
 21
-91.439
  0
LINE
  8
0
 10
-32.528
 11
-33.014
 20
-91.439
 21
-91.114
  0
LINE
  8
0
 10
-33.014
 11
-33.339
 20
-91.114
 21
-90.628
  0
LINE
  8
0
 10
-33.339
 11
-33.454
 20
-90.628
 21
-90.054
  0
LINE
  8
0
 10
-22.154
 11
-15.083
 20
2.734
 21
9.805
  0
LINE
  8
0
 10
-15.083
 11
-11.406
 20
9.805
 21
6.128
  0
LINE
  8
0
 10
-11.406
 11
-18.477
 20
6.128
 21
-0.943
  0
LINE
  8
0
 10
-18.477
 11
-22.154
 20
-0.943
 21
2.734
  0
LINE
  8
0
 10
-17.373
 11
-13.696
 20
-23.271
 21
-19.594
  0
LINE
  8
0
 10
-13.696
 11
-6.625
 20
-19.594
 21
-26.665
  0
LINE
  8
0
 10
-6.625
 11
-10.302
 20
-26.665
 21
-30.342
  0
LINE
  8
0
 10
-10.302
 11
-17.373
 20
-30.342
 21
-23.271
  0
LINE
  8
0
 10
-16.666
 11
-9.595
 20
-87.618
 21
-80.547
  0
LINE
  8
0
 10
-9.595
 11
-5.918
 20
-80.547
 21
-84.224
  0
LINE
  8
0
 10
-5.918
 11
-12.989
 20
-84.224
 21
-91.295
  0
LINE
  8
0
 10
-12.989
 11
-16.666
 20
-91.295
 21
-87.618
  0
LINE
  8
0
 10
-7.741
 11
-7.741
 20
14.617
 21
15.458
  0
LINE
  8
0
 10
-7.741
 11
-7.321
 20
15.458
 21
16.185
  0
LINE
  8
0
 10
-7.321
 11
-6.593
 20
16.185
 21
16.606
  0
LINE
  8
0
 10
-6.593
 11
-5.753
 20
16.606
 21
16.606
  0
LINE
  8
0
 10
-5.753
 11
-5.025
 20
16.606
 21
16.185
  0
LINE
  8
0
 10
-5.025
 11
-4.605
 20
16.185
 21
15.458
  0
LINE
  8
0
 10
-4.605
 11
-4.605
 20
15.458
 21
14.617
  0
LINE
  8
0
 10
-4.605
 11
-5.025
 20
14.617
 21
13.889
  0
LINE
  8
0
 10
-5.025
 11
-5.753
 20
13.889
 21
13.469
  0
LINE
  8
0
 10
-5.753
 11
-6.593
 20
13.469
 21
13.469
  0
LINE
  8
0
 10
-6.593
 11
-7.321
 20
13.469
 21
13.889
  0
LINE
  8
0
 10
-7.321
 11
-7.741
 20
13.889
 21
14.617
  0
LINE
  8
0
 10
-2.961
 11
-2.961
 20
-35.995
 21
-35.155
  0
LINE
  8
0
 10
-2.961
 11
-2.541
 20
-35.155
 21
-34.427
  0
LINE
  8
0
 10
-2.541
 11
-1.813
 20
-34.427
 21
-34.007
  0
LINE
  8
0
 10
-1.813
 11
-0.972
 20
-34.007
 21
-34.007
  0
LINE
  8
0
 10
-0.972
 11
-0.245
 20
-34.007
 21
-34.427
  0
LINE
  8
0
 10
-0.245
 11
0.176
 20
-34.427
 21
-35.155
  0
LINE
  8
0
 10
0.176
 11
0.176
 20
-35.155
 21
-35.995
  0
LINE
  8
0
 10
0.176
 11
-0.245
 20
-35.995
 21
-36.723
  0
LINE
  8
0
 10
-0.245
 11
-0.972
 20
-36.723
 21
-37.143
  0
LINE
  8
0
 10
-0.972
 11
-1.813
 20
-37.143
 21
-37.143
  0
LINE
  8
0
 10
-1.813
 11
-2.541
 20
-37.143
 21
-36.723
  0
LINE
  8
0
 10
-2.541
 11
-2.961
 20
-36.723
 21
-35.995
  0
LINE
  8
0
 10
-2.254
 11
-2.254
 20
-75.735
 21
-74.894
  0
LINE
  8
0
 10
-2.254
 11
-1.834
 20
-74.894
 21
-74.166
  0
LINE
  8
0
 10
-1.834
 11
-1.106
 20
-74.166
 21
-73.746
  0
LINE
  8
0
 10
-1.106
 11
-0.265
 20
-73.746
 21
-73.746
  0
LINE
  8
0
 10
-0.265
 11
0.462
 20
-73.746
 21
-74.166
  0
LINE
  8
0
 10
0.462
 11
0.883
 20
-74.166
 21
-74.894
  0
LINE
  8
0
 10
0.883
 11
0.883
 20
-74.894
 21
-75.735
  0
LINE
  8
0
 10
0.883
 11
0.462
 20
-75.735
 21
-76.462
  0
LINE
  8
0
 10
0.462
 11
-0.265
 20
-76.462
 21
-76.883
  0
LINE
  8
0
 10
-0.265
 11
-1.106
 20
-76.883
 21
-76.883
  0
LINE
  8
0
 10
-1.106
 11
-1.834
 20
-76.883
 21
-76.462
  0
LINE
  8
0
 10
-1.834
 11
-2.254
 20
-76.462
 21
-75.735
  0
LINE
  8
0
 10
-0.941
 11
6.131
 20
23.947
 21
31.018
  0
LINE
  8
0
 10
6.131
 11
9.807
 20
31.018
 21
27.341
  0
LINE
  8
0
 10
9.807
 11
2.736
 20
27.341
 21
20.27
  0
LINE
  8
0
 10
2.736
 11
-0.941
 20
20.27
 21
23.947
  0
LINE
  8
0
 10
3
 11
3
 20
-159.68
 21
-149.68
  0
LINE
  8
0
 10
3
 11
8.2
 20
-149.68
 21
-149.68
  0
LINE
  8
0
 10
8.2
 11
8.2
 20
-149.68
 21
-141.18
  0
LINE
  8
0
 10
8.2
 11
12.7
 20
-141.18
 21
-141.18
  0
LINE
  8
0
 10
12.7
 11
12.7
 20
-141.18
 21
-142.43
  0
LINE
  8
0
 10
12.7
 11
16.7
 20
-142.43
 21
-142.43
  0
LINE
  8
0
 10
16.7
 11
16.7
 20
-142.43
 21
-141.18
  0
LINE
  8
0
 10
16.7
 11
18.15
 20
-141.18
 21
-141.18
  0
LINE
  8
0
 10
18.15
 11
18.15
 20
-141.18
 21
-138.18
  0
LINE
  8
0
 10
18.15
 11
16.7
 20
-138.18
 21
-138.18
  0
LINE
  8
0
 10
16.7
 11
16.7
 20
-138.18
 21
-136.93
  0
LINE
  8
0
 10
16.7
 11
12.7
 20
-136.93
 21
-136.93
  0
LINE
  8
0
 10
12.7
 11
12.7
 20
-136.93
 21
-138.18
  0
LINE
  8
0
 10
12.7
 11
8.2
 20
-138.18
 21
-138.18
  0
LINE
  8
0
 10
8.2
 11
8.2
 20
-138.18
 21
-129.68
  0
LINE
  8
0
 10
8.2
 11
3
 20
-129.68
 21
-129.68
  0
LINE
  8
0
 10
3
 11
3
 20
-129.68
 21
-119.68
  0
LINE
  8
0
 10
3
 11
8.2
 20
-119.68
 21
-119.68
  0
LINE
  8
0
 10
8.2
 11
8.2
 20
-119.68
 21
-114.68
  0
LINE
  8
0
 10
8.2
 11
213.2
 20
-114.68
 21
-114.68
  0
LINE
  8
0
 10
213.2
 11
213.2
 20
-114.68
 21
-119.68
  0
LINE
  8
0
 10
213.2
 11
218.4
 20
-119.68
 21
-119.68
  0
LINE
  8
0
 10
218.4
 11
218.4
 20
-119.68
 21
-129.68
  0
LINE
  8
0
 10
218.4
 11
213.2
 20
-129.68
 21
-129.68
  0
LINE
  8
0
 10
213.2
 11
213.2
 20
-129.68
 21
-138.18
  0
LINE
  8
0
 10
213.2
 11
208.7
 20
-138.18
 21
-138.18
  0
LINE
  8
0
 10
208.7
 11
208.7
 20
-138.18
 21
-136.93
  0
LINE
  8
0
 10
208.7
 11
204.7
 20
-136.93
 21
-136.93
  0
LINE
  8
0
 10
204.7
 11
204.7
 20
-136.93
 21
-138.18
  0
LINE
  8
0
 10
204.7
 11
203.25
 20
-138.18
 21
-138.18
  0
LINE
  8
0
 10
203.25
 11
203.25
 20
-138.18
 21
-141.18
  0
LINE
  8
0
 10
203.25
 11
204.7
 20
-141.18
 21
-141.18
  0
LINE
  8
0
 10
204.7
 11
204.7
 20
-141.18
 21
-142.43
  0
LINE
  8
0
 10
204.7
 11
208.7
 20
-142.43
 21
-142.43
  0
LINE
  8
0
 10
208.7
 11
208.7
 20
-142.43
 21
-141.18
  0
LINE
  8
0
 10
208.7
 11
213.2
 20
-141.18
 21
-141.18
  0
LINE
  8
0
 10
213.2
 11
213.2
 20
-141.18
 21
-149.68
  0
LINE
  8
0
 10
213.2
 11
218.4
 20
-149.68
 21
-149.68
  0
LINE
  8
0
 10
218.4
 11
218.4
 20
-149.68
 21
-159.68
  0
LINE
  8
0
 10
218.4
 11
213.2
 20
-159.68
 21
-159.68
  0
LINE
  8
0
 10
213.2
 11
213.2
 20
-159.68
 21
-172.88
  0
LINE
  8
0
 10
213.2
 11
8.2
 20
-172.88
 21
-172.88
  0
LINE
  8
0
 10
8.2
 11
8.2
 20
-172.88
 21
-159.68
  0
LINE
  8
0
 10
8.2
 11
3
 20
-159.68
 21
-159.68
  0
LINE
  8
0
 10
3.84
 11
7.517
 20
-44.485
 21
-40.808
  0
LINE
  8
0
 10
7.517
 11
14.588
 20
-40.808
 21
-47.879
  0
LINE
  8
0
 10
14.588
 11
10.911
 20
-47.879
 21
-51.556
  0
LINE
  8
0
 10
10.911
 11
3.84
 20
-51.556
 21
-44.485
  0
LINE
  8
0
 10
4.547
 11
11.618
 20
-66.405
 21
-59.334
  0
LINE
  8
0
 10
11.618
 11
15.295
 20
-59.334
 21
-63.011
  0
LINE
  8
0
 10
15.295
 11
8.224
 20
-63.011
 21
-70.082
  0
LINE
  8
0
 10
8.224
 11
4.547
 20
-70.082
 21
-66.405
  0
LINE
  8
0
 10
14.2
 11
14.2
 20
-169.88
 21
-164.68
  0
LINE
  8
0
 10
14.2
 11
24.2
 20
-164.68
 21
-164.68
  0
LINE
  8
0
 10
24.2
 11
24.2
 20
-164.68
 21
-169.88
  0
LINE
  8
0
 10
24.2
 11
14.2
 20
-169.88
 21
-169.88
  0
LINE
  8
0
 10
19.346
 11
23.023
 20
22.266
 21
25.943
  0
LINE
  8
0
 10
23.023
 11
30.094
 20
25.943
 21
18.872
  0
LINE
  8
0
 10
30.094
 11
26.417
 20
18.872
 21
15.195
  0
LINE
  8
0
 10
26.417
 11
19.346
 20
15.195
 21
22.266
  0
LINE
  8
0
 10
23.384
 11
30.455
 20
48.271
 21
55.342
  0
LINE
  8
0
 10
30.455
 11
34.132
 20
55.342
 21
51.665
  0
LINE
  8
0
 10
34.132
 11
27.061
 20
51.665
 21
44.594
  0
LINE
  8
0
 10
27.061
 11
23.384
 20
44.594
 21
48.271
  0
LINE
  8
0
 10
24.091
 11
27.768
 20
112.618
 21
116.295
  0
LINE
  8
0
 10
27.768
 11
34.839
 20
116.295
 21
109.224
  0
LINE
  8
0
 10
34.839
 11
31.162
 20
109.224
 21
105.547
  0
LINE
  8
0
 10
31.162
 11
24.091
 20
105.547
 21
112.618
  0
LINE
  8
0
 10
32.576
 11
32.794
 20
-167.28
 21
-166.468
  0
LINE
  8
0
 10
32.794
 11
33.388
 20
-166.468
 21
-165.874
  0
LINE
  8
0
 10
33.388
 11
34.2
 20
-165.874
 21
-165.656
  0
LINE
  8
0
 10
34.2
 11
35.012
 20
-165.656
 21
-165.874
  0
LINE
  8
0
 10
35.012
 11
35.606
 20
-165.874
 21
-166.468
  0
LINE
  8
0
 10
35.606
 11
35.824
 20
-166.468
 21
-167.28
  0
LINE
  8
0
 10
35.824
 11
35.606
 20
-167.28
 21
-168.092
  0
LINE
  8
0
 10
35.606
 11
35.012
 20
-168.092
 21
-168.686
  0
LINE
  8
0
 10
35.012
 11
34.2
 20
-168.686
 21
-168.904
  0
LINE
  8
0
 10
34.2
 11
33.388
 20
-168.904
 21
-168.686
  0
LINE
  8
0
 10
33.388
 11
32.794
 20
-168.686
 21
-168.092
  0
LINE
  8
0
 10
32.794
 11
32.576
 20
-168.092
 21
-167.28
  0
LINE
  8
0
 10
33.759
 11
33.759
 20
9.542
 21
10.383
  0
LINE
  8
0
 10
33.759
 11
34.179
 20
10.383
 21
11.111
  0
LINE
  8
0
 10
34.179
 11
34.907
 20
11.111
 21
11.531
  0
LINE
  8
0
 10
34.907
 11
35.747
 20
11.531
 21
11.531
  0
LINE
  8
0
 10
35.747
 11
36.475
 20
11.531
 21
11.111
  0
LINE
  8
0
 10
36.475
 11
36.895
 20
11.111
 21
10.383
  0
LINE
  8
0
 10
36.895
 11
36.895
 20
10.383
 21
9.542
  0
LINE
  8
0
 10
36.895
 11
36.475
 20
9.542
 21
8.815
  0
LINE
  8
0
 10
36.475
 11
35.747
 20
8.815
 21
8.394
  0
LINE
  8
0
 10
35.747
 11
34.907
 20
8.394
 21
8.394
  0
LINE
  8
0
 10
34.907
 11
34.179
 20
8.394
 21
8.815
  0
LINE
  8
0
 10
34.179
 11
33.759
 20
8.815
 21
9.542
  0
LINE
  8
0
 10
37.796
 11
37.796
 20
60.155
 21
60.995
  0
LINE
  8
0
 10
37.796
 11
38.216
 20
60.995
 21
61.723
  0
LINE
  8
0
 10
38.216
 11
38.944
 20
61.723
 21
62.143
  0
LINE
  8
0
 10
38.944
 11
39.785
 20
62.143
 21
62.143
  0
LINE
  8
0
 10
39.785
 11
40.513
 20
62.143
 21
61.723
  0
LINE
  8
0
 10
40.513
 11
40.933
 20
61.723
 21
60.995
  0
LINE
  8
0
 10
40.933
 11
40.933
 20
60.995
 21
60.155
  0
LINE
  8
0
 10
40.933
 11
40.513
 20
60.155
 21
59.427
  0
LINE
  8
0
 10
40.513
 11
39.785
 20
59.427
 21
59.007
  0
LINE
  8
0
 10
39.785
 11
38.944
 20
59.007
 21
59.007
  0
LINE
  8
0
 10
38.944
 11
38.216
 20
59.007
 21
59.427
  0
LINE
  8
0
 10
38.216
 11
37.796
 20
59.427
 21
60.155
  0
LINE
  8
0
 10
38.503
 11
38.503
 20
99.894
 21
100.735
  0
LINE
  8
0
 10
38.503
 11
38.924
 20
100.735
 21
101.462
  0
LINE
  8
0
 10
38.924
 11
39.651
 20
101.462
 21
101.883
  0
LINE
  8
0
 10
39.651
 11
40.492
 20
101.883
 21
101.883
  0
LINE
  8
0
 10
40.492
 11
41.22
 20
101.883
 21
101.462
  0
LINE
  8
0
 10
41.22
 11
41.64
 20
101.462
 21
100.735
  0
LINE
  8
0
 10
41.64
 11
41.64
 20
100.735
 21
99.894
  0
LINE
  8
0
 10
41.64
 11
41.22
 20
99.894
 21
99.166
  0
LINE
  8
0
 10
41.22
 11
40.492
 20
99.166
 21
98.746
  0
LINE
  8
0
 10
40.492
 11
39.651
 20
98.746
 21
98.746
  0
LINE
  8
0
 10
39.651
 11
38.924
 20
98.746
 21
99.166
  0
LINE
  8
0
 10
38.924
 11
38.503
 20
99.166
 21
99.894
  0
LINE
  8
0
 10
40.559
 11
44.236
 20
1.053
 21
4.73
  0
LINE
  8
0
 10
44.236
 11
51.307
 20
4.73
 21
-2.341
  0
LINE
  8
0
 10
51.307
 11
47.631
 20
-2.341
 21
-6.018
  0
LINE
  8
0
 10
47.631
 11
40.559
 20
-6.018
 21
1.053
  0
LINE
  8
0
 10
44.2
 11
44.2
 20
-169.88
 21
-164.68
  0
LINE
  8
0
 10
44.2
 11
54.2
 20
-164.68
 21
-164.68
  0
LINE
  8
0
 10
54.2
 11
54.2
 20
-164.68
 21
-169.88
  0
LINE
  8
0
 10
54.2
 11
44.2
 20
-169.88
 21
-169.88
  0
LINE
  8
0
 10
44.597
 11
51.668
 20
69.485
 21
76.556
  0
LINE
  8
0
 10
51.668
 11
55.345
 20
76.556
 21
72.879
  0
LINE
  8
0
 10
55.345
 11
48.274
 20
72.879
 21
65.808
  0
LINE
  8
0
 10
48.274
 11
44.597
 20
65.808
 21
69.485
  0
LINE
  8
0
 10
45.304
 11
48.981
 20
91.405
 21
95.082
  0
LINE
  8
0
 10
48.981
 11
56.052
 20
95.082
 21
88.011
  0
LINE
  8
0
 10
56.052
 11
52.375
 20
88.011
 21
84.334
  0
LINE
  8
0
 10
52.375
 11
45.304
 20
84.334
 21
91.405
  0
LINE
  8
0
 10
60.103
 11
67.175
 20
2.734
 21
9.805
  0
LINE
  8
0
 10
67.175
 11
70.852
 20
9.805
 21
6.128
  0
LINE
  8
0
 10
70.852
 11
63.78
 20
6.128
 21
-0.943
  0
LINE
  8
0
 10
63.78
 11
60.103
 20
-0.943
 21
2.734
  0
LINE
  8
0
 10
64.884
 11
68.561
 20
-23.271
 21
-19.594
  0
LINE
  8
0
 10
68.561
 11
75.632
 20
-19.594
 21
-26.665
  0
LINE
  8
0
 10
75.632
 11
71.955
 20
-26.665
 21
-30.342
  0
LINE
  8
0
 10
71.955
 11
64.884
 20
-30.342
 21
-23.271
  0
LINE
  8
0
 10
65.591
 11
72.662
 20
-87.618
 21
-80.547
  0
LINE
  8
0
 10
72.662
 11
76.339
 20
-80.547
 21
-84.224
  0
LINE
  8
0
 10
76.339
 11
69.268
 20
-84.224
 21
-91.295
  0
LINE
  8
0
 10
69.268
 11
65.591
 20
-91.295
 21
-87.618
  0
LINE
  8
0
 10
66.061
 11
66.175
 20
115.054
 21
115.628
  0
LINE
  8
0
 10
66.175
 11
66.5
 20
115.628
 21
116.114
  0
LINE
  8
0
 10
66.5
 11
66.987
 20
116.114
 21
116.439
  0
LINE
  8
0
 10
66.987
 11
67.561
 20
116.439
 21
116.554
  0
LINE
  8
0
 10
67.561
 11
68.135
 20
116.554
 21
116.439
  0
LINE
  8
0
 10
68.135
 11
68.622
 20
116.439
 21
116.114
  0
LINE
  8
0
 10
68.622
 11
68.947
 20
116.114
 21
115.628
  0
LINE
  8
0
 10
68.947
 11
69.061
 20
115.628
 21
115.054
  0
LINE
  8
0
 10
69.061
 11
68.947
 20
115.054
 21
114.48
  0
LINE
  8
0
 10
68.947
 11
68.622
 20
114.48
 21
113.993
  0
LINE
  8
0
 10
68.622
 11
68.135
 20
113.993
 21
113.668
  0
LINE
  8
0
 10
68.135
 11
67.561
 20
113.668
 21
113.554
  0
LINE
  8
0
 10
67.561
 11
66.987
 20
113.554
 21
113.668
  0
LINE
  8
0
 10
66.987
 11
66.5
 20
113.668
 21
113.993
  0
LINE
  8
0
 10
66.5
 11
66.175
 20
113.993
 21
114.48
  0
LINE
  8
0
 10
66.175
 11
66.061
 20
114.48
 21
115.054
  0
LINE
  8
0
 10
74.516
 11
74.516
 20
14.617
 21
15.458
  0
LINE
  8
0
 10
74.516
 11
74.936
 20
15.458
 21
16.185
  0
LINE
  8
0
 10
74.936
 11
75.664
 20
16.185
 21
16.606
  0
LINE
  8
0
 10
75.664
 11
76.504
 20
16.606
 21
16.606
  0
LINE
  8
0
 10
76.504
 11
77.232
 20
16.606
 21
16.185
  0
LINE
  8
0
 10
77.232
 11
77.652
 20
16.185
 21
15.458
  0
LINE
  8
0
 10
77.652
 11
77.652
 20
15.458
 21
14.617
  0
LINE
  8
0
 10
77.652
 11
77.232
 20
14.617
 21
13.889
  0
LINE
  8
0
 10
77.232
 11
76.504
 20
13.889
 21
13.469
  0
LINE
  8
0
 10
76.504
 11
75.664
 20
13.469
 21
13.469
  0
LINE
  8
0
 10
75.664
 11
74.936
 20
13.469
 21
13.889
  0
LINE
  8
0
 10
74.936
 11
74.516
 20
13.889
 21
14.617
  0
LINE
  8
0
 10
79.296
 11
79.296
 20
-35.995
 21
-35.155
  0
LINE
  8
0
 10
79.296
 11
79.716
 20
-35.155
 21
-34.427
  0
LINE
  8
0
 10
79.716
 11
80.444
 20
-34.427
 21
-34.007
  0
LINE
  8
0
 10
80.444
 11
81.285
 20
-34.007
 21
-34.007
  0
LINE
  8
0
 10
81.285
 11
82.013
 20
-34.007
 21
-34.427
  0
LINE
  8
0
 10
82.013
 11
82.433
 20
-34.427
 21
-35.155
  0
LINE
  8
0
 10
82.433
 11
82.433
 20
-35.155
 21
-35.995
  0
LINE
  8
0
 10
82.433
 11
82.013
 20
-35.995
 21
-36.723
  0
LINE
  8
0
 10
82.013
 11
81.285
 20
-36.723
 21
-37.143
  0
LINE
  8
0
 10
81.285
 11
80.444
 20
-37.143
 21
-37.143
  0
LINE
  8
0
 10
80.444
 11
79.716
 20
-37.143
 21
-36.723
  0
LINE
  8
0
 10
79.716
 11
79.296
 20
-36.723
 21
-35.995
  0
LINE
  8
0
 10
80.003
 11
80.003
 20
-75.735
 21
-74.894
  0
LINE
  8
0
 10
80.003
 11
80.424
 20
-74.894
 21
-74.166
  0
LINE
  8
0
 10
80.424
 11
81.151
 20
-74.166
 21
-73.746
  0
LINE
  8
0
 10
81.151
 11
81.992
 20
-73.746
 21
-73.746
  0
LINE
  8
0
 10
81.992
 11
82.72
 20
-73.746
 21
-74.166
  0
LINE
  8
0
 10
82.72
 11
83.14
 20
-74.166
 21
-74.894
  0
LINE
  8
0
 10
83.14
 11
83.14
 20
-74.894
 21
-75.735
  0
LINE
  8
0
 10
83.14
 11
82.72
 20
-75.735
 21
-76.462
  0
LINE
  8
0
 10
82.72
 11
81.992
 20
-76.462
 21
-76.883
  0
LINE
  8
0
 10
81.992
 11
81.151
 20
-76.883
 21
-76.883
  0
LINE
  8
0
 10
81.151
 11
80.424
 20
-76.883
 21
-76.462
  0
LINE
  8
0
 10
80.424
 11
80.003
 20
-76.462
 21
-75.735
  0
LINE
  8
0
 10
81.317
 11
88.388
 20
23.947
 21
31.018
  0
LINE
  8
0
 10
88.388
 11
92.065
 20
31.018
 21
27.341
  0
LINE
  8
0
 10
92.065
 11
84.994
 20
27.341
 21
20.27
  0
LINE
  8
0
 10
84.994
 11
81.317
 20
20.27
 21
23.947
  0
LINE
  8
0
 10
86.097
 11
89.774
 20
-44.485
 21
-40.808
  0
LINE
  8
0
 10
89.774
 11
96.845
 20
-40.808
 21
-47.879
  0
LINE
  8
0
 10
96.845
 11
93.168
 20
-47.879
 21
-51.556
  0
LINE
  8
0
 10
93.168
 11
86.097
 20
-51.556
 21
-44.485
  0
LINE
  8
0
 10
86.804
 11
93.875
 20
-66.405
 21
-59.334
  0
LINE
  8
0
 10
93.875
 11
97.552
 20
-59.334
 21
-63.011
  0
LINE
  8
0
 10
97.552
 11
90.481
 20
-63.011
 21
-70.082
  0
LINE
  8
0
 10
90.481
 11
86.804
 20
-70.082
 21
-66.405
  0
LINE
  8
0
 10
89.561
 11
89.675
 20
115.054
 21
115.628
  0
LINE
  8
0
 10
89.675
 11
90
 20
115.628
 21
116.114
  0
LINE
  8
0
 10
90
 11
90.487
 20
116.114
 21
116.439
  0
LINE
  8
0
 10
90.487
 11
91.061
 20
116.439
 21
116.554
  0
LINE
  8
0
 10
91.061
 11
91.635
 20
116.554
 21
116.439
  0
LINE
  8
0
 10
91.635
 11
92.122
 20
116.439
 21
116.114
  0
LINE
  8
0
 10
92.122
 11
92.447
 20
116.114
 21
115.628
  0
LINE
  8
0
 10
92.447
 11
92.561
 20
115.628
 21
115.054
  0
LINE
  8
0
 10
92.561
 11
92.447
 20
115.054
 21
114.48
  0
LINE
  8
0
 10
92.447
 11
92.122
 20
114.48
 21
113.993
  0
LINE
  8
0
 10
92.122
 11
91.635
 20
113.993
 21
113.668
  0
LINE
  8
0
 10
91.635
 11
91.061
 20
113.668
 21
113.554
  0
LINE
  8
0
 10
91.061
 11
90.487
 20
113.554
 21
113.668
  0
LINE
  8
0
 10
90.487
 11
90
 20
113.668
 21
113.993
  0
LINE
  8
0
 10
90
 11
89.675
 20
113.993
 21
114.48
  0
LINE
  8
0
 10
89.675
 11
89.561
 20
114.48
 21
115.054
  0
LINE
  8
0
 10
101.603
 11
105.28
 20
22.266
 21
25.943
  0
LINE
  8
0
 10
105.28
 11
112.352
 20
25.943
 21
18.872
  0
LINE
  8
0
 10
112.352
 11
108.675
 20
18.872
 21
15.195
  0
LINE
  8
0
 10
108.675
 11
101.603
 20
15.195
 21
22.266
  0
LINE
  8
0
 10
105.641
 11
112.712
 20
48.271
 21
55.342
  0
LINE
  8
0
 10
112.712
 11
116.389
 20
55.342
 21
51.665
  0
LINE
  8
0
 10
116.389
 11
109.318
 20
51.665
 21
44.594
  0
LINE
  8
0
 10
109.318
 11
105.641
 20
44.594
 21
48.271
  0
LINE
  8
0
 10
106.348
 11
110.025
 20
112.618
 21
116.295
  0
LINE
  8
0
 10
110.025
 11
117.096
 20
116.295
 21
109.224
  0
LINE
  8
0
 10
117.096
 11
113.419
 20
109.224
 21
105.547
  0
LINE
  8
0
 10
113.419
 11
106.348
 20
105.547
 21
112.618
  0
LINE
  8
0
 10
107.561
 11
107.675
 20
-90.054
 21
-89.48
  0
LINE
  8
0
 10
107.675
 11
108
 20
-89.48
 21
-88.993
  0
LINE
  8
0
 10
108
 11
108.487
 20
-88.993
 21
-88.668
  0
LINE
  8
0
 10
108.487
 11
109.061
 20
-88.668
 21
-88.554
  0
LINE
  8
0
 10
109.061
 11
109.635
 20
-88.554
 21
-88.668
  0
LINE
  8
0
 10
109.635
 11
110.122
 20
-88.668
 21
-88.993
  0
LINE
  8
0
 10
110.122
 11
110.447
 20
-88.993
 21
-89.48
  0
LINE
  8
0
 10
110.447
 11
110.561
 20
-89.48
 21
-90.054
  0
LINE
  8
0
 10
110.561
 11
110.447
 20
-90.054
 21
-90.628
  0
LINE
  8
0
 10
110.447
 11
110.122
 20
-90.628
 21
-91.114
  0
LINE
  8
0
 10
110.122
 11
109.635
 20
-91.114
 21
-91.439
  0
LINE
  8
0
 10
109.635
 11
109.061
 20
-91.439
 21
-91.554
  0
LINE
  8
0
 10
109.061
 11
108.487
 20
-91.554
 21
-91.439
  0
LINE
  8
0
 10
108.487
 11
108
 20
-91.439
 21
-91.114
  0
LINE
  8
0
 10
108
 11
107.675
 20
-91.114
 21
-90.628
  0
LINE
  8
0
 10
107.675
 11
107.561
 20
-90.628
 21
-90.054
  0
LINE
  8
0
 10
116.016
 11
116.016
 20
9.542
 21
10.383
  0
LINE
  8
0
 10
116.016
 11
116.436
 20
10.383
 21
11.111
  0
LINE
  8
0
 10
116.436
 11
117.164
 20
11.111
 21
11.531
  0
LINE
  8
0
 10
117.164
 11
118.004
 20
11.531
 21
11.531
  0
LINE
  8
0
 10
118.004
 11
118.732
 20
11.531
 21
11.111
  0
LINE
  8
0
 10
118.732
 11
119.152
 20
11.111
 21
10.383
  0
LINE
  8
0
 10
119.152
 11
119.152
 20
10.383
 21
9.542
  0
LINE
  8
0
 10
119.152
 11
118.732
 20
9.542
 21
8.815
  0
LINE
  8
0
 10
118.732
 11
118.004
 20
8.815
 21
8.394
  0
LINE
  8
0
 10
118.004
 11
117.164
 20
8.394
 21
8.394
  0
LINE
  8
0
 10
117.164
 11
116.436
 20
8.394
 21
8.815
  0
LINE
  8
0
 10
116.436
 11
116.016
 20
8.815
 21
9.542
  0
LINE
  8
0
 10
120.054
 11
120.054
 20
60.155
 21
60.995
  0
LINE
  8
0
 10
120.054
 11
120.474
 20
60.995
 21
61.723
  0
LINE
  8
0
 10
120.474
 11
121.202
 20
61.723
 21
62.143
  0
LINE
  8
0
 10
121.202
 11
122.042
 20
62.143
 21
62.143
  0
LINE
  8
0
 10
122.042
 11
122.77
 20
62.143
 21
61.723
  0
LINE
  8
0
 10
122.77
 11
123.19
 20
61.723
 21
60.995
  0
LINE
  8
0
 10
123.19
 11
123.19
 20
60.995
 21
60.155
  0
LINE
  8
0
 10
123.19
 11
122.77
 20
60.155
 21
59.427
  0
LINE
  8
0
 10
122.77
 11
122.042
 20
59.427
 21
59.007
  0
LINE
  8
0
 10
122.042
 11
121.202
 20
59.007
 21
59.007
  0
LINE
  8
0
 10
121.202
 11
120.474
 20
59.007
 21
59.427
  0
LINE
  8
0
 10
120.474
 11
120.054
 20
59.427
 21
60.155
  0
LINE
  8
0
 10
120.761
 11
120.761
 20
99.894
 21
100.735
  0
LINE
  8
0
 10
120.761
 11
121.181
 20
100.735
 21
101.462
  0
LINE
  8
0
 10
121.181
 11
121.909
 20
101.462
 21
101.883
  0
LINE
  8
0
 10
121.909
 11
122.749
 20
101.883
 21
101.883
  0
LINE
  8
0
 10
122.749
 11
123.477
 20
101.883
 21
101.462
  0
LINE
  8
0
 10
123.477
 11
123.897
 20
101.462
 21
100.735
  0
LINE
  8
0
 10
123.897
 11
123.897
 20
100.735
 21
99.894
  0
LINE
  8
0
 10
123.897
 11
123.477
 20
99.894
 21
99.166
  0
LINE
  8
0
 10
123.477
 11
122.749
 20
99.166
 21
98.746
  0
LINE
  8
0
 10
122.749
 11
121.909
 20
98.746
 21
98.746
  0
LINE
  8
0
 10
121.909
 11
121.181
 20
98.746
 21
99.166
  0
LINE
  8
0
 10
121.181
 11
120.761
 20
99.166
 21
99.894
  0
LINE
  8
0
 10
122.817
 11
126.494
 20
1.053
 21
4.73
  0
LINE
  8
0
 10
126.494
 11
133.565
 20
4.73
 21
-2.341
  0
LINE
  8
0
 10
133.565
 11
129.888
 20
-2.341
 21
-6.018
  0
LINE
  8
0
 10
129.888
 11
122.817
 20
-6.018
 21
1.053
  0
LINE
  8
0
 10
126.854
 11
133.925
 20
69.485
 21
76.556
  0
LINE
  8
0
 10
133.925
 11
137.602
 20
76.556
 21
72.879
  0
LINE
  8
0
 10
137.602
 11
130.531
 20
72.879
 21
65.808
  0
LINE
  8
0
 10
130.531
 11
126.854
 20
65.808
 21
69.485
  0
LINE
  8
0
 10
127.561
 11
131.238
 20
91.405
 21
95.082
  0
LINE
  8
0
 10
131.238
 11
138.309
 20
95.082
 21
88.011
  0
LINE
  8
0
 10
138.309
 11
134.633
 20
88.011
 21
84.334
  0
LINE
  8
0
 10
134.633
 11
127.561
 20
84.334
 21
91.405
  0
LINE
  8
0
 10
131.061
 11
131.175
 20
-90.054
 21
-89.48
  0
LINE
  8
0
 10
131.175
 11
131.5
 20
-89.48
 21
-88.993
  0
LINE
  8
0
 10
131.5
 11
131.987
 20
-88.993
 21
-88.668
  0
LINE
  8
0
 10
131.987
 11
132.561
 20
-88.668
 21
-88.554
  0
LINE
  8
0
 10
132.561
 11
133.135
 20
-88.554
 21
-88.668
  0
LINE
  8
0
 10
133.135
 11
133.622
 20
-88.668
 21
-88.993
  0
LINE
  8
0
 10
133.622
 11
133.947
 20
-88.993
 21
-89.48
  0
LINE
  8
0
 10
133.947
 11
134.061
 20
-89.48
 21
-90.054
  0
LINE
  8
0
 10
134.061
 11
133.947
 20
-90.054
 21
-90.628
  0
LINE
  8
0
 10
133.947
 11
133.622
 20
-90.628
 21
-91.114
  0
LINE
  8
0
 10
133.622
 11
133.135
 20
-91.114
 21
-91.439
  0
LINE
  8
0
 10
133.135
 11
132.561
 20
-91.439
 21
-91.554
  0
LINE
  8
0
 10
132.561
 11
131.987
 20
-91.554
 21
-91.439
  0
LINE
  8
0
 10
131.987
 11
131.5
 20
-91.439
 21
-91.114
  0
LINE
  8
0
 10
131.5
 11
131.175
 20
-91.114
 21
-90.628
  0
LINE
  8
0
 10
131.175
 11
131.061
 20
-90.628
 21
-90.054
  0
LINE
  8
0
 10
147.141
 11
150.818
 20
-23.271
 21
-19.594
  0
LINE
  8
0
 10
150.818
 11
157.889
 20
-19.594
 21
-26.665
  0
LINE
  8
0
 10
157.889
 11
154.212
 20
-26.665
 21
-30.342
  0
LINE
  8
0
 10
154.212
 11
147.141
 20
-30.342
 21
-23.271
  0
LINE
  8
0
 10
147.848
 11
154.919
 20
-87.618
 21
-80.547
  0
LINE
  8
0
 10
154.919
 11
158.596
 20
-80.547
 21
-84.224
  0
LINE
  8
0
 10
158.596
 11
151.525
 20
-84.224
 21
-91.295
  0
LINE
  8
0
 10
151.525
 11
147.848
 20
-91.295
 21
-87.618
  0
LINE
  8
0
 10
161.554
 11
161.554
 20
-35.995
 21
-35.155
  0
LINE
  8
0
 10
161.554
 11
161.974
 20
-35.155
 21
-34.427
  0
LINE
  8
0
 10
161.974
 11
162.702
 20
-34.427
 21
-34.007
  0
LINE
  8
0
 10
162.702
 11
163.542
 20
-34.007
 21
-34.007
  0
LINE
  8
0
 10
163.542
 11
164.27
 20
-34.007
 21
-34.427
  0
LINE
  8
0
 10
164.27
 11
164.69
 20
-34.427
 21
-35.155
  0
LINE
  8
0
 10
164.69
 11
164.69
 20
-35.155
 21
-35.995
  0
LINE
  8
0
 10
164.69
 11
164.27
 20
-35.995
 21
-36.723
  0
LINE
  8
0
 10
164.27
 11
163.542
 20
-36.723
 21
-37.143
  0
LINE
  8
0
 10
163.542
 11
162.702
 20
-37.143
 21
-37.143
  0
LINE
  8
0
 10
162.702
 11
161.974
 20
-37.143
 21
-36.723
  0
LINE
  8
0
 10
161.974
 11
161.554
 20
-36.723
 21
-35.995
  0
LINE
  8
0
 10
162.261
 11
162.261
 20
-75.735
 21
-74.894
  0
LINE
  8
0
 10
162.261
 11
162.681
 20
-74.894
 21
-74.166
  0
LINE
  8
0
 10
162.681
 11
163.409
 20
-74.166
 21
-73.746
  0
LINE
  8
0
 10
163.409
 11
164.249
 20
-73.746
 21
-73.746
  0
LINE
  8
0
 10
164.249
 11
164.977
 20
-73.746
 21
-74.166
  0
LINE
  8
0
 10
164.977
 11
165.397
 20
-74.166
 21
-74.894
  0
LINE
  8
0
 10
165.397
 11
165.397
 20
-74.894
 21
-75.735
  0
LINE
  8
0
 10
165.397
 11
164.977
 20
-75.735
 21
-76.462
  0
LINE
  8
0
 10
164.977
 11
164.249
 20
-76.462
 21
-76.883
  0
LINE
  8
0
 10
164.249
 11
163.409
 20
-76.883
 21
-76.883
  0
LINE
  8
0
 10
163.409
 11
162.681
 20
-76.883
 21
-76.462
  0
LINE
  8
0
 10
162.681
 11
162.261
 20
-76.462
 21
-75.735
  0
LINE
  8
0
 10
167.2
 11
167.2
 20
-169.88
 21
-164.68
  0
LINE
  8
0
 10
167.2
 11
177.2
 20
-164.68
 21
-164.68
  0
LINE
  8
0
 10
177.2
 11
177.2
 20
-164.68
 21
-169.88
  0
LINE
  8
0
 10
177.2
 11
167.2
 20
-169.88
 21
-169.88
  0
LINE
  8
0
 10
168.354
 11
172.031
 20
-44.485
 21
-40.808
  0
LINE
  8
0
 10
172.031
 11
179.102
 20
-40.808
 21
-47.879
  0
LINE
  8
0
 10
179.102
 11
175.425
 20
-47.879
 21
-51.556
  0
LINE
  8
0
 10
175.425
 11
168.354
 20
-51.556
 21
-44.485
  0
LINE
  8
0
 10
169.061
 11
176.133
 20
-66.405
 21
-59.334
  0
LINE
  8
0
 10
176.133
 11
179.809
 20
-59.334
 21
-63.011
  0
LINE
  8
0
 10
179.809
 11
172.738
 20
-63.011
 21
-70.082
  0
LINE
  8
0
 10
172.738
 11
169.061
 20
-70.082
 21
-66.405
  0
LINE
  8
0
 10
185.576
 11
185.794
 20
-167.28
 21
-166.468
  0
LINE
  8
0
 10
185.794
 11
186.388
 20
-166.468
 21
-165.874
  0
LINE
  8
0
 10
186.388
 11
187.2
 20
-165.874
 21
-165.656
  0
LINE
  8
0
 10
187.2
 11
188.012
 20
-165.656
 21
-165.874
  0
LINE
  8
0
 10
188.012
 11
188.606
 20
-165.874
 21
-166.468
  0
LINE
  8
0
 10
188.606
 11
188.824
 20
-166.468
 21
-167.28
  0
LINE
  8
0
 10
188.824
 11
188.606
 20
-167.28
 21
-168.092
  0
LINE
  8
0
 10
188.606
 11
188.012
 20
-168.092
 21
-168.686
  0
LINE
  8
0
 10
188.012
 11
187.2
 20
-168.686
 21
-168.904
  0
LINE
  8
0
 10
187.2
 11
186.388
 20
-168.904
 21
-168.686
  0
LINE
  8
0
 10
186.388
 11
185.794
 20
-168.686
 21
-168.092
  0
LINE
  8
0
 10
185.794
 11
185.576
 20
-168.092
 21
-167.28
  0
LINE
  8
0
 10
197.2
 11
197.2
 20
-169.88
 21
-164.68
  0
LINE
  8
0
 10
197.2
 11
207.2
 20
-164.68
 21
-164.68
  0
LINE
  8
0
 10
207.2
 11
207.2
 20
-164.68
 21
-169.88
  0
LINE
  8
0
 10
207.2
 11
197.2
 20
-169.88
 21
-169.88
  0
ENDSEC
  0
SECTION
  2
OBJECTS
  0
DICTIONARY
  0
ENDSEC
  0
EOF
